<?xml version="1.0" encoding="iso-8859-1"?>
<!-- Generator: Adobe Illustrator 18.0.0, SVG Export Plug-In . SVG Version: 6.00 Build 0)  -->
<!DOCTYPE svg PUBLIC "-//W3C//DTD SVG 1.1//EN" "http://www.w3.org/Graphics/SVG/1.1/DTD/svg11.dtd">
<svg version="1.1" id="Capa_1" xmlns="http://www.w3.org/2000/svg" xmlns:xlink="http://www.w3.org/1999/xlink" x="0px" y="0px"
	 viewBox="0 0 349.537 349.537" style="enable-background:new 0 0 349.537 349.537;" xml:space="preserve">
<g>
	<g>
		<path d="M337.723,274.912c-7.601-9.664-20.701-11.086-27.65-9.686c-11.644,2.348-23.132,11.225-27.997,15.369h-5.755
			c3.041-3.297,5.874-6.629,8.491-9.99c7.65-9.83,12.892-19.18,16.376-27.889c1.059,0.115,2.124,0.197,3.202,0.197
			c17.825,0,32.326-15.707,32.326-35.012c0-19.307-14.501-35.014-32.326-35.014c-3.051,0-6.064,0.475-8.959,1.383
			c-7.546-11.207-18.265-20.215-30.823-25.994c5.702-12.301,8.7-25.756,8.7-39.342c0-10.664-1.806-20.924-5.133-30.512
			c15.775-5.588,26.783-20.57,26.783-38.043C294.959,18.115,276.843,0,254.578,0c-15.77,0-29.857,9.252-36.443,22.996
			c-13.094-6.26-27.813-9.783-43.365-9.783c-15.554,0-30.274,3.524-43.368,9.783C124.815,9.254,110.728,0,94.96,0
			C72.693,0,54.578,18.115,54.578,40.381c0,17.217,10.97,32.371,26.789,38.027c-3.331,9.592-5.139,19.857-5.139,30.527
			c0,13.605,2.997,27.039,8.704,39.342C72.37,154.059,61.647,163.07,54.1,174.281c-2.89-0.91-5.897-1.393-8.952-1.393
			c-17.826,0-32.328,15.707-32.328,35.014c0,19.305,14.502,35.012,32.328,35.012c1.077,0,2.143-0.08,3.202-0.195
			c3.484,8.709,8.726,18.059,16.376,27.887c2.618,3.361,5.449,6.693,8.491,9.99h-5.756c-4.865-4.145-16.353-13.022-27.996-15.369
			c-6.953-1.402-20.053,0.023-27.651,9.686c-5.197,6.607-9.268,19.037,0.857,40.728c16.541,35.434,61.826,34.045,66.078,33.834
			c0,0,193.499,0.063,194.9,0.063c11.147,0,48.523-2.424,63.216-33.897C346.991,293.949,342.92,281.52,337.723,274.912z
			 M304.39,187.889c9.554,0,17.326,8.979,17.326,20.014c0,10.533-7.088,19.172-16.042,19.936c2.39-11.781,1.681-21.906-0.04-29.803
			c-0.752-3.451-1.779-6.797-3.03-10.035C303.196,187.928,303.792,187.889,304.39,187.889z M43.902,198.037
			c-1.721,7.895-2.43,18.02-0.04,29.801c-8.954-0.766-16.042-9.402-16.042-19.936c0-11.035,7.773-20.014,17.328-20.014
			c0.598,0,1.192,0.045,1.783,0.117C45.68,191.242,44.653,194.586,43.902,198.037z M58.558,201.23
			c5.6-25.711,30.975-45.1,59.025-45.1c20.082,0,38.232,9.834,51.105,27.691c1.41,1.955,3.674,3.113,6.084,3.113
			c2.41,0,4.674-1.158,6.084-3.113c12.873-17.857,31.023-27.691,51.106-27.691c28.045,0,53.416,19.389,59.016,45.098
			c9.424,43.262-33.963,91.742-116.205,130.059C92.525,292.969,49.134,244.488,58.558,201.23z M254.578,15
			c13.995,0,25.381,11.387,25.381,25.381c0,11.361-7.399,21.049-17.858,24.256c-7.357-13.631-17.997-25.338-30.895-34.123
			C235.109,21.297,244.264,15,254.578,15z M174.769,28.213c46.064,0,83.539,36.211,83.539,80.723c0,11.91-2.75,23.699-7.96,34.392
			c-5.915-1.428-12.076-2.197-18.386-2.197c-21.971,0-41.965,9.277-57.19,26.334c-15.225-17.057-35.221-26.334-57.189-26.334
			c-6.312,0-12.478,0.77-18.396,2.199c-5.214-10.697-7.959-22.469-7.959-34.394C91.228,64.424,128.705,28.213,174.769,28.213z
			 M69.578,40.381C69.578,26.387,80.964,15,94.96,15c10.313,0,19.471,6.297,23.373,15.512
			c-12.895,8.781-23.531,20.483-30.889,34.109C76.955,61.377,69.578,51.576,69.578,40.381z M78.09,334.488
			c-0.385,0.033-39.103,2.064-51.827-25.193c-5.382-11.529-6.326-20.447-2.659-25.109c3.289-4.18,10.022-4.834,12.897-4.254
			c8.732,1.76,19.563,10.449,22.993,13.642c1.39,1.299,3.221,2.022,5.123,2.022h24.171c15.777,13.645,35.37,26.639,58.633,38.887
			C109.773,334.482,78.152,334.484,78.09,334.488z M323.274,309.295c-12.652,27.102-51.46,25.215-51.827,25.193
			c-0.061-0.004-31.683-0.006-69.331-0.006c23.263-12.248,42.855-25.242,58.634-38.887h24.17c1.897,0,3.729-0.725,5.117-2.016
			c3.436-3.199,14.267-11.889,23-13.648c2.876-0.58,9.61,0.074,12.896,4.254C329.6,288.848,328.656,297.766,323.274,309.295z"/>
		<path d="M174.767,147.621c23.512,0,42.641-16.334,42.641-36.412c0-20.076-19.129-36.41-42.641-36.41
			c-23.511,0-42.639,16.334-42.639,36.41C132.128,131.287,151.256,147.621,174.767,147.621z M174.767,89.799
			c15.241,0,27.641,9.605,27.641,21.41c0,11.807-12.399,21.412-27.641,21.412c-15.24,0-27.639-9.605-27.639-21.412
			C147.128,99.404,159.527,89.799,174.767,89.799z"/>
		<path d="M141.528,81.547c1.971,0,3.9-0.801,5.301-2.201c1.399-1.389,2.199-3.328,2.199-5.299c0-1.98-0.8-3.91-2.199-5.301
			c-1.4-1.4-3.33-2.199-5.301-2.199c-1.979,0-3.909,0.799-5.31,2.199c-1.39,1.391-2.19,3.33-2.19,5.301
			c0,1.971,0.801,3.9,2.19,5.299C137.619,80.746,139.548,81.547,141.528,81.547z"/>
		<path d="M209.908,81.547c1.971,0,3.9-0.801,5.301-2.201c1.399-1.389,2.199-3.328,2.199-5.299c0-1.971-0.8-3.91-2.199-5.301
			c-1.4-1.4-3.33-2.199-5.301-2.199c-1.97,0-3.909,0.799-5.31,2.199c-1.39,1.391-2.19,3.33-2.19,5.301c0,1.971,0.801,3.9,2.19,5.299
			C205.999,80.746,207.938,81.547,209.908,81.547z"/>
	</g>
</g>
<g>
</g>
<g>
</g>
<g>
</g>
<g>
</g>
<g>
</g>
<g>
</g>
<g>
</g>
<g>
</g>
<g>
</g>
<g>
</g>
<g>
</g>
<g>
</g>
<g>
</g>
<g>
</g>
<g>
</g>
</svg>
